999
"DXF R12 Output" (www.mydxf.blogspot.com)
 0 
SECTION
 2 
HEADER
 9 
$ACADVER
 1 
AC1009
 9 
$EXTMIN
 10 
 0 
 20 
 0 
 9 
$EXTMAX
 10 
 8.5 
 20 
 11 
 0 
ENDSEC
 0 
SECTION
 2 
ENTITIES
0
POLYLINE
8
Layer 1
62
7
70
1
10
0.000000
20
0.000000
66
1
0
VERTEX
8
Layer 1
10
39.683481
20
18.006140
70
0
0
VERTEX
8
Layer 1
10
40.027600
20
18.957535
70
0
0
VERTEX
8
Layer 1
10
40.680265
20
19.691070
70
0
0
VERTEX
8
Layer 1
10
41.556518
20
20.137790
70
0
0
VERTEX
8
Layer 1
10
42.571405
20
20.228740
70
0
0
VERTEX
8
Layer 1
10
45.652209
20
19.907830
70
0
0
VERTEX
8
Layer 1
10
45.653797
20
19.907830
70
0
0
VERTEX
8
Layer 1
10
47.085455
20
19.758743
70
0
0
VERTEX
8
Layer 1
10
48.071589
20
19.453538
70
0
0
VERTEX
8
Layer 1
10
48.865834
20
18.794203
70
0
0
VERTEX
8
Layer 1
10
49.347441
20
17.880980
70
0
0
VERTEX
8
Layer 1
10
49.442890
20
16.852984
70
0
0
VERTEX
8
Layer 1
10
49.217465
20
14.688775
70
0
0
VERTEX
8
Layer 1
10
50.088208
20
15.301152
70
0
0
VERTEX
8
Layer 1
10
51.615348
20
15.957761
70
0
0
VERTEX
8
Layer 1
10
53.244683
20
16.208566
70
0
0
VERTEX
8
Layer 1
10
53.244683
20
17.597124
70
0
0
VERTEX
8
Layer 1
10
55.890513
20
17.597124
70
0
0
VERTEX
8
Layer 1
10
55.890513
20
12.678817
70
0
0
VERTEX
8
Layer 1
10
54.959181
20
13.262249
70
0
0
VERTEX
8
Layer 1
10
53.485983
20
13.566890
70
0
0
VERTEX
8
Layer 1
10
52.406550
20
13.431433
70
0
0
VERTEX
8
Layer 1
10
51.437052
20
13.025050
70
0
0
VERTEX
8
Layer 1
10
50.632786
20
12.398531
70
0
0
VERTEX
8
Layer 1
10
50.014654
20
11.568812
70
0
0
VERTEX
8
Layer 1
10
49.633654
20
10.565533
70
0
0
VERTEX
8
Layer 1
10
49.506654
20
9.418308
70
0
0
VERTEX
8
Layer 1
10
49.625254
20
8.279539
70
0
0
VERTEX
8
Layer 1
10
49.980787
20
7.301644
70
0
0
VERTEX
8
Layer 1
10
50.543853
20
6.505765
70
0
0
VERTEX
8
Layer 1
10
51.250785
20
5.913086
70
0
0
VERTEX
8
Layer 1
10
52.088951
20
5.544879
70
0
0
VERTEX
8
Layer 1
10
53.011850
20
5.422178
70
0
0
VERTEX
8
Layer 1
10
53.854381
20
5.515212
70
0
0
VERTEX
8
Layer 1
10
54.620515
20
5.794500
70
0
0
VERTEX
8
Layer 1
10
55.281178
20
6.227371
70
0
0
VERTEX
8
Layer 1
10
55.967242
20
6.877888
70
0
0
VERTEX
8
Layer 1
10
56.110646
20
5.574366
70
0
0
VERTEX
8
Layer 1
10
57.346778
20
5.574366
70
0
0
VERTEX
8
Layer 1
10
57.346778
20
17.597124
70
0
0
VERTEX
8
Layer 1
10
53.244683
20
17.597124
70
0
0
VERTEX
8
Layer 1
10
53.452600
20
18.626998
70
0
0
VERTEX
8
Layer 1
10
54.019613
20
19.468005
70
0
0
VERTEX
8
Layer 1
10
54.860619
20
20.035029
70
0
0
VERTEX
8
Layer 1
10
55.890513
20
20.242951
70
0
0
VERTEX
8
Layer 1
10
57.346778
20
20.242951
70
0
0
VERTEX
8
Layer 1
10
58.376671
20
20.035018
70
0
0
VERTEX
8
Layer 1
10
59.217677
20
19.467993
70
0
0
VERTEX
8
Layer 1
10
59.784691
20
18.626990
70
0
0
VERTEX
8
Layer 1
10
59.992608
20
17.597124
70
0
0
VERTEX
8
Layer 1
10
59.992608
20
5.574366
70
0
0
VERTEX
8
Layer 1
10
59.784691
20
4.544518
70
0
0
VERTEX
8
Layer 1
10
59.217677
20
3.703507
70
0
0
VERTEX
8
Layer 1
10
58.376671
20
3.136468
70
0
0
VERTEX
8
Layer 1
10
57.346778
20
2.928536
70
0
0
VERTEX
8
Layer 1
10
56.110646
20
2.928536
70
0
0
VERTEX
8
Layer 1
10
55.103114
20
3.128508
70
0
0
VERTEX
8
Layer 1
10
54.072365
20
2.862804
70
0
0
VERTEX
8
Layer 1
10
53.011850
20
2.776348
70
0
0
VERTEX
8
Layer 1
10
51.973560
20
2.863175
70
0
0
VERTEX
8
Layer 1
10
50.974561
20
3.124884
70
0
0
VERTEX
8
Layer 1
10
50.476583
20
2.617977
70
0
0
VERTEX
8
Layer 1
10
49.863709
20
2.261655
70
0
0
VERTEX
8
Layer 1
10
49.169278
20
2.079858
70
0
0
VERTEX
8
Layer 1
10
48.426626
20
2.096529
70
0
0
VERTEX
8
Layer 1
10
46.434846
20
2.423130
70
0
0
VERTEX
8
Layer 1
10
46.414473
20
2.426490
70
0
0
VERTEX
8
Layer 1
10
45.160647
20
2.726273
70
0
0
VERTEX
8
Layer 1
10
43.961788
20
3.245824
70
0
0
VERTEX
8
Layer 1
10
43.937711
20
3.259768
70
0
0
VERTEX
8
Layer 1
10
42.753471
20
4.274731
70
0
0
VERTEX
8
Layer 1
10
42.004403
20
5.642814
70
0
0
VERTEX
8
Layer 1
10
41.984824
20
5.702769
70
0
0
VERTEX
8
Layer 1
10
41.974770
20
5.695016
70
0
0
VERTEX
8
Layer 1
10
41.963128
20
5.686761
70
0
0
VERTEX
8
Layer 1
10
40.469690
20
4.902938
70
0
0
VERTEX
8
Layer 1
10
38.840520
20
4.543154
70
0
0
VERTEX
8
Layer 1
10
38.924922
20
3.413755
70
0
0
VERTEX
8
Layer 1
10
38.799509
20
2.389078
70
0
0
VERTEX
8
Layer 1
10
38.291510
20
1.490369
70
0
0
VERTEX
8
Layer 1
10
37.478149
20
0.854527
70
0
0
VERTEX
8
Layer 1
10
36.483614
20
0.578272
70
0
0
VERTEX
8
Layer 1
10
35.031318
20
0.469767
70
0
0
VERTEX
8
Layer 1
10
33.988861
20
0.600392
70
0
0
VERTEX
8
Layer 1
10
33.107932
20
1.103211
70
0
0
VERTEX
8
Layer 1
10
32.479812
20
1.899668
70
0
0
VERTEX
8
Layer 1
10
32.195782
20
2.911206
70
0
0
VERTEX
8
Layer 1
10
31.955012
20
6.130388
70
0
0
VERTEX
8
Layer 1
10
31.692281
20
5.751611
70
0
0
VERTEX
8
Layer 1
10
30.888941
20
5.103343
70
0
0
VERTEX
8
Layer 1
10
29.898673
20
4.811865
70
0
0
VERTEX
8
Layer 1
10
25.952126
20
4.456345
70
0
0
VERTEX
8
Layer 1
10
25.949533
20
4.456345
70
0
0
VERTEX
8
Layer 1
10
23.894623
20
4.271084
70
0
0
VERTEX
8
Layer 1
10
22.886740
20
4.374774
70
0
0
VERTEX
8
Layer 1
10
22.020344
20
4.828666
70
0
0
VERTEX
8
Layer 1
10
21.554402
20
3.908040
70
0
0
VERTEX
8
Layer 1
10
20.800421
20
3.253286
70
0
0
VERTEX
8
Layer 1
10
19.857096
20
2.923333
70
0
0
VERTEX
8
Layer 1
10
18.823123
20
2.977114
70
0
0
VERTEX
8
Layer 1
10
17.542832
20
3.301890
70
0
0
VERTEX
8
Layer 1
10
16.919841
20
3.547003
70
0
0
VERTEX
8
Layer 1
10
16.394065
20
3.926914
70
0
0
VERTEX
8
Layer 1
10
16.250926
20
3.906488
70
0
0
VERTEX
8
Layer 1
10
16.207508
20
3.901329
70
0
0
VERTEX
8
Layer 1
10
15.142148
20
3.882044
70
0
0
VERTEX
8
Layer 1
10
14.099628
20
4.052485
70
0
0
VERTEX
8
Layer 1
10
12.521883
20
4.699691
70
0
0
VERTEX
8
Layer 1
10
11.803671
20
5.230313
70
0
0
VERTEX
8
Layer 1
10
11.180695
20
5.921870
70
0
0
VERTEX
8
Layer 1
10
10.488229
20
5.431465
70
0
0
VERTEX
8
Layer 1
10
10.475846
20
5.423977
70
0
0
VERTEX
8
Layer 1
10
8.928426
20
4.753650
70
0
0
VERTEX
8
Layer 1
10
7.277064
20
4.516273
70
0
0
VERTEX
8
Layer 1
10
7.277064
20
3.383804
70
0
0
VERTEX
8
Layer 1
10
7.069144
20
2.353922
70
0
0
VERTEX
8
Layer 1
10
6.502124
20
1.512915
70
0
0
VERTEX
8
Layer 1
10
5.661117
20
0.945895
70
0
0
VERTEX
8
Layer 1
10
4.631234
20
0.737974
70
0
0
VERTEX
8
Layer 1
10
3.174996
20
0.737974
70
0
0
VERTEX
8
Layer 1
10
2.145119
20
0.945895
70
0
0
VERTEX
8
Layer 1
10
1.304111
20
1.512915
70
0
0
VERTEX
8
Layer 1
10
0.737088
20
2.353922
70
0
0
VERTEX
8
Layer 1
10
0.529166
20
3.383804
70
0
0
VERTEX
8
Layer 1
10
0.529166
20
15.152324
70
0
0
VERTEX
8
Layer 1
10
0.737088
20
16.182195
70
0
0
VERTEX
8
Layer 1
10
1.304111
20
17.023204
70
0
0
VERTEX
8
Layer 1
10
2.145119
20
17.590230
70
0
0
VERTEX
8
Layer 1
10
3.174996
20
17.798154
70
0
0
VERTEX
8
Layer 1
10
4.411101
20
17.798154
70
0
0
VERTEX
8
Layer 1
10
5.434297
20
17.592203
70
0
0
VERTEX
8
Layer 1
10
6.463439
20
17.861780
70
0
0
VERTEX
8
Layer 1
10
7.526910
20
17.950580
70
0
0
VERTEX
8
Layer 1
10
9.154105
20
17.728784
70
0
0
VERTEX
8
Layer 1
10
10.660314
20
17.065365
70
0
0
VERTEX
8
Layer 1
10
11.961797
20
15.980945
70
0
0
VERTEX
8
Layer 1
10
12.474125
20
16.766788
70
0
0
VERTEX
8
Layer 1
10
13.211039
20
17.315227
70
0
0
VERTEX
8
Layer 1
10
14.095313
20
17.580284
70
0
0
VERTEX
8
Layer 1
10
15.049719
20
17.515976
70
0
0
VERTEX
8
Layer 1
10
16.461243
20
17.158128
70
0
0
VERTEX
8
Layer 1
10
17.393266
20
16.714045
70
0
0
VERTEX
8
Layer 1
10
18.084407
20
15.947105
70
0
0
VERTEX
8
Layer 1
10
18.279219
20
15.544277
70
0
0
VERTEX
8
Layer 1
10
18.643021
20
15.805500
70
0
0
VERTEX
8
Layer 1
10
19.615912
20
16.150513
70
0
0
VERTEX
8
Layer 1
10
20.646787
20
16.096965
70
0
0
VERTEX
8
Layer 1
10
20.951666
20
16.019706
70
0
0
VERTEX
8
Layer 1
10
21.257074
20
16.474445
70
0
0
VERTEX
8
Layer 1
10
22.060474
20
17.122571
70
0
0
VERTEX
8
Layer 1
10
23.050762
20
17.413927
70
0
0
VERTEX
8
Layer 1
10
25.799674
20
17.661709
70
0
0
VERTEX
8
Layer 1
10
25.801764
20
17.661709
70
0
0
VERTEX
8
Layer 1
10
26.052641
20
17.684463
70
0
0
VERTEX
8
Layer 1
10
26.185700
20
17.692982
70
0
0
VERTEX
8
Layer 1
10
26.910297
20
17.621743
70
0
0
VERTEX
8
Layer 1
10
27.569549
20
17.364846
70
0
0
VERTEX
8
Layer 1
10
28.065906
20
17.585244
70
0
0
VERTEX
8
Layer 1
10
29.362363
20
17.940764
70
0
0
VERTEX
8
Layer 1
10
29.404696
20
17.947485
70
0
0
VERTEX
8
Layer 1
10
31.065219
20
18.199151
70
0
0
VERTEX
8
Layer 1
10
31.199363
20
18.215944
70
0
0
VERTEX
8
Layer 1
10
32.387704
20
18.061685
70
0
0
VERTEX
8
Layer 1
10
33.363123
20
17.422208
70
0
0
VERTEX
8
Layer 1
10
33.760262
20
17.482665
70
0
0
VERTEX
8
Layer 1
10
34.992954
20
17.574634
70
0
0
VERTEX
8
Layer 1
10
35.119689
20
17.581090
70
0
0
VERTEX
8
Layer 1
10
36.028796
20
17.445438
70
0
0
VERTEX
8
Layer 1
10
37.034774
20
17.790990
70
0
0
VERTEX
8
Layer 1
10
38.088575
20
17.958862
70
0
0
VERTEX
8
Layer 1
10
39.665754
20
17.870226
70
0
0
VERTEX
8
Layer 1
10
39.666019
20
17.871258
70
0
0
VERTEX
8
Layer 1
10
39.683481
20
18.006140
70
0
0
VERTEX
8
Layer 1
10
39.683481
20
18.006140
70
0
0
SEQEND
8
Layer 1
0
POLYLINE
8
Layer 1
62
7
70
1
10
0.000000
20
0.000000
66
1
0
VERTEX
8
Layer 1
10
40.061570
20
14.960581
70
0
0
VERTEX
8
Layer 1
10
39.202502
20
15.265671
70
0
0
VERTEX
8
Layer 1
10
38.285689
20
15.320255
70
0
0
VERTEX
8
Layer 1
10
37.448747
20
15.160175
70
0
0
VERTEX
8
Layer 1
10
36.693958
20
14.810985
70
0
0
VERTEX
8
Layer 1
10
36.069542
20
14.318256
70
0
0
VERTEX
8
Layer 1
10
35.423695
20
13.588056
70
0
0
VERTEX
8
Layer 1
10
35.190068
20
14.936292
70
0
0
VERTEX
8
Layer 1
10
33.957376
20
14.844058
70
0
0
VERTEX
8
Layer 1
10
34.834204
20
3.108109
70
0
0
VERTEX
8
Layer 1
10
36.286500
20
3.216614
70
0
0
VERTEX
8
Layer 1
10
35.925873
20
8.040095
70
0
0
VERTEX
8
Layer 1
10
37.080249
20
7.368292
70
0
0
VERTEX
8
Layer 1
10
38.504235
20
7.169088
70
0
0
VERTEX
8
Layer 1
10
39.533099
20
7.377513
70
0
0
VERTEX
8
Layer 1
10
40.424049
20
7.838827
70
0
0
VERTEX
8
Layer 1
10
41.161673
20
8.534925
70
0
0
VERTEX
8
Layer 1
10
41.699075
20
9.411323
70
0
0
VERTEX
8
Layer 1
10
42.016839
20
10.441262
70
0
0
VERTEX
8
Layer 1
10
42.062347
20
11.595164
70
0
0
VERTEX
8
Layer 1
10
41.859180
20
12.721871
70
0
0
VERTEX
8
Layer 1
10
41.431581
20
13.670500
70
0
0
VERTEX
8
Layer 1
10
40.819204
20
14.422855
70
0
0
VERTEX
8
Layer 1
10
40.061570
20
14.960581
70
0
0
VERTEX
8
Layer 1
10
40.061570
20
14.960581
70
0
0
SEQEND
8
Layer 1
0
POLYLINE
8
Layer 1
62
7
70
1
10
0.000000
20
0.000000
66
1
0
VERTEX
8
Layer 1
10
42.171355
20
16.384540
70
0
0
VERTEX
8
Layer 1
10
45.253218
20
16.063627
70
0
0
VERTEX
8
Layer 1
10
44.423750
20
8.097192
70
0
0
VERTEX
8
Layer 1
10
44.394150
20
7.197997
70
0
0
VERTEX
8
Layer 1
10
44.511592
20
6.487733
70
0
0
VERTEX
8
Layer 1
10
44.808123
20
5.941803
70
0
0
VERTEX
8
Layer 1
10
45.281264
20
5.539203
70
0
0
VERTEX
8
Layer 1
10
46.862941
20
5.034088
70
0
0
VERTEX
8
Layer 1
10
48.854722
20
4.707487
70
0
0
VERTEX
8
Layer 1
10
49.068769
20
5.944889
70
0
0
VERTEX
8
Layer 1
10
47.245263
20
6.254160
70
0
0
VERTEX
8
Layer 1
10
46.545904
20
6.446108
70
0
0
VERTEX
8
Layer 1
10
46.091417
20
6.782796
70
0
0
VERTEX
8
Layer 1
10
45.878957
20
7.315667
70
0
0
VERTEX
8
Layer 1
10
45.871284
20
8.099520
70
0
0
VERTEX
8
Layer 1
10
46.811347
20
17.127119
70
0
0
VERTEX
8
Layer 1
10
42.297561
20
17.597124
70
0
0
VERTEX
8
Layer 1
10
42.171355
20
16.384540
70
0
0
VERTEX
8
Layer 1
10
42.171355
20
16.384540
70
0
0
SEQEND
8
Layer 1
0
POLYLINE
8
Layer 1
62
7
70
1
10
0.000000
20
0.000000
66
1
0
VERTEX
8
Layer 1
10
13.051112
20
9.633017
70
0
0
VERTEX
8
Layer 1
10
12.941049
20
8.595431
70
0
0
VERTEX
8
Layer 1
10
13.176445
20
7.714790
70
0
0
VERTEX
8
Layer 1
10
13.773761
20
7.039310
70
0
0
VERTEX
8
Layer 1
10
14.749735
20
6.617194
70
0
0
VERTEX
8
Layer 1
10
15.915805
20
6.531152
70
0
0
VERTEX
8
Layer 1
10
17.239752
20
6.929322
70
0
0
VERTEX
8
Layer 1
10
18.544834
20
7.580699
70
0
0
VERTEX
8
Layer 1
10
18.192912
20
5.866598
70
0
0
VERTEX
8
Layer 1
10
19.473468
20
5.541796
70
0
0
VERTEX
8
Layer 1
10
21.408231
20
13.174407
70
0
0
VERTEX
8
Layer 1
10
19.996680
20
13.532256
70
0
0
VERTEX
8
Layer 1
10
18.810211
20
8.852709
70
0
0
VERTEX
8
Layer 1
10
17.407947
20
8.144208
70
0
0
VERTEX
8
Layer 1
10
16.301832
20
7.778343
70
0
0
VERTEX
8
Layer 1
10
15.468289
20
7.797472
70
0
0
VERTEX
8
Layer 1
10
14.895107
20
8.034568
70
0
0
VERTEX
8
Layer 1
10
14.554393
20
8.396144
70
0
0
VERTEX
8
Layer 1
10
14.445144
20
8.895445
70
0
0
VERTEX
8
Layer 1
10
14.525183
20
9.521389
70
0
0
VERTEX
8
Layer 1
10
15.811163
20
14.593419
70
0
0
VERTEX
8
Layer 1
10
14.399374
20
14.951294
70
0
0
VERTEX
8
Layer 1
10
13.051112
20
9.633017
70
0
0
VERTEX
8
Layer 1
10
13.051112
20
9.633017
70
0
0
SEQEND
8
Layer 1
0
POLYLINE
8
Layer 1
62
7
70
1
10
0.000000
20
0.000000
66
1
0
VERTEX
8
Layer 1
10
53.706116
20
12.381690
70
0
0
VERTEX
8
Layer 1
10
54.451181
20
12.263078
70
0
0
VERTEX
8
Layer 1
10
55.365580
20
11.806011
70
0
0
VERTEX
8
Layer 1
10
55.890513
20
11.386408
70
0
0
VERTEX
8
Layer 1
10
55.890513
20
7.979638
70
0
0
VERTEX
8
Layer 1
10
55.162381
20
7.318683
70
0
0
VERTEX
8
Layer 1
10
54.247982
20
6.776605
70
0
0
VERTEX
8
Layer 1
10
53.418249
20
6.624417
70
0
0
VERTEX
8
Layer 1
10
52.795983
20
6.708994
70
0
0
VERTEX
8
Layer 1
10
52.215984
20
6.962898
70
0
0
VERTEX
8
Layer 1
10
51.712185
20
7.386234
70
0
0
VERTEX
8
Layer 1
10
51.318519
20
7.945004
70
0
0
VERTEX
8
Layer 1
10
51.077186
20
8.647845
70
0
0
VERTEX
8
Layer 1
10
50.996786
20
9.469213
70
0
0
VERTEX
8
Layer 1
10
51.077186
20
10.256579
70
0
0
VERTEX
8
Layer 1
10
51.318519
20
10.959292
70
0
0
VERTEX
8
Layer 1
10
51.712251
20
11.547761
70
0
0
VERTEX
8
Layer 1
10
52.249851
20
11.992303
70
0
0
VERTEX
8
Layer 1
10
52.918750
20
12.284340
70
0
0
VERTEX
8
Layer 1
10
53.706116
20
12.381690
70
0
0
VERTEX
8
Layer 1
10
53.706116
20
12.381690
70
0
0
SEQEND
8
Layer 1
0
POLYLINE
8
Layer 1
62
7
70
1
10
0.000000
20
0.000000
66
1
0
VERTEX
8
Layer 1
10
29.801042
20
15.331632
70
0
0
VERTEX
8
Layer 1
10
28.988243
20
15.105281
70
0
0
VERTEX
8
Layer 1
10
28.264344
20
14.648981
70
0
0
VERTEX
8
Layer 1
10
27.465038
20
13.710029
70
0
0
VERTEX
8
Layer 1
10
26.621019
20
12.335679
70
0
0
VERTEX
8
Layer 1
10
26.290105
20
15.049216
70
0
0
VERTEX
8
Layer 1
10
23.288225
20
14.778944
70
0
0
VERTEX
8
Layer 1
10
23.397498
20
13.564561
70
0
0
VERTEX
8
Layer 1
10
25.117552
20
13.719581
70
0
0
VERTEX
8
Layer 1
10
25.605126
20
8.305974
70
0
0
VERTEX
8
Layer 1
10
23.547887
20
8.120449
70
0
0
VERTEX
8
Layer 1
10
23.657186
20
6.906304
70
0
0
VERTEX
8
Layer 1
10
25.714425
20
7.091829
70
0
0
VERTEX
8
Layer 1
10
25.714689
20
7.091565
70
0
0
VERTEX
8
Layer 1
10
27.148332
20
7.220761
70
0
0
VERTEX
8
Layer 1
10
27.148068
20
7.221025
70
0
0
VERTEX
8
Layer 1
10
29.661077
20
7.447111
70
0
0
VERTEX
8
Layer 1
10
29.551804
20
8.661256
70
0
0
VERTEX
8
Layer 1
10
27.038795
20
8.435170
70
0
0
VERTEX
8
Layer 1
10
26.804110
20
11.041974
70
0
0
VERTEX
8
Layer 1
10
27.678292
20
12.284006
70
0
0
VERTEX
8
Layer 1
10
28.460929
20
13.221688
70
0
0
VERTEX
8
Layer 1
10
29.169482
20
13.659388
70
0
0
VERTEX
8
Layer 1
10
30.101872
20
13.879521
70
0
0
VERTEX
8
Layer 1
10
31.691752
20
14.158841
70
0
0
VERTEX
8
Layer 1
10
31.461565
20
15.583039
70
0
0
VERTEX
8
Layer 1
10
29.801042
20
15.331632
70
0
0
VERTEX
8
Layer 1
10
29.801042
20
15.331632
70
0
0
SEQEND
8
Layer 1
0
POLYLINE
8
Layer 1
62
7
70
1
10
0.000000
20
0.000000
66
1
0
VERTEX
8
Layer 1
10
37.953108
20
14.089838
70
0
0
VERTEX
8
Layer 1
10
38.588901
20
14.048282
70
0
0
VERTEX
8
Layer 1
10
39.178657
20
13.825017
70
0
0
VERTEX
8
Layer 1
10
39.707724
20
13.448443
70
0
0
VERTEX
8
Layer 1
10
40.129833
20
12.911094
70
0
0
VERTEX
8
Layer 1
10
40.434169
20
12.246065
70
0
0
VERTEX
8
Layer 1
10
40.578566
20
11.450226
70
0
0
VERTEX
8
Layer 1
10
40.556407
20
10.667444
70
0
0
VERTEX
8
Layer 1
10
40.368751
20
9.940224
70
0
0
VERTEX
8
Layer 1
10
40.020328
20
9.319956
70
0
0
VERTEX
8
Layer 1
10
39.518117
20
8.824028
70
0
0
VERTEX
8
Layer 1
10
38.876205
20
8.495836
70
0
0
VERTEX
8
Layer 1
10
38.076933
20
8.342645
70
0
0
VERTEX
8
Layer 1
10
37.324988
20
8.405457
70
0
0
VERTEX
8
Layer 1
10
36.379104
20
8.793283
70
0
0
VERTEX
8
Layer 1
10
35.840942
20
9.178781
70
0
0
VERTEX
8
Layer 1
10
35.588001
20
12.561527
70
0
0
VERTEX
8
Layer 1
10
36.265598
20
13.267673
70
0
0
VERTEX
8
Layer 1
10
37.137134
20
13.876161
70
0
0
VERTEX
8
Layer 1
10
37.953108
20
14.089838
70
0
0
VERTEX
8
Layer 1
10
37.953108
20
14.089838
70
0
0
SEQEND
8
Layer 1
0
POLYLINE
8
Layer 1
62
7
70
1
10
0.000000
20
0.000000
66
1
0
VERTEX
8
Layer 1
10
7.103445
20
14.102512
70
0
0
VERTEX
8
Layer 1
10
7.734191
20
14.013628
70
0
0
VERTEX
8
Layer 1
10
8.305684
20
13.746965
70
0
0
VERTEX
8
Layer 1
10
8.805226
20
13.332112
70
0
0
VERTEX
8
Layer 1
10
9.186242
20
12.764859
70
0
0
VERTEX
8
Layer 1
10
9.440288
20
12.078951
70
0
0
VERTEX
8
Layer 1
10
9.524988
20
11.274516
70
0
0
VERTEX
8
Layer 1
10
9.444565
20
10.495614
70
0
0
VERTEX
8
Layer 1
10
9.203308
20
9.784438
70
0
0
VERTEX
8
Layer 1
10
8.809529
20
9.191805
70
0
0
VERTEX
8
Layer 1
10
8.271844
20
8.734625
70
0
0
VERTEX
8
Layer 1
10
7.607277
20
8.455216
70
0
0
VERTEX
8
Layer 1
10
6.798804
20
8.362039
70
0
0
VERTEX
8
Layer 1
10
6.053633
20
8.480626
70
0
0
VERTEX
8
Layer 1
10
5.139207
20
8.937957
70
0
0
VERTEX
8
Layer 1
10
4.631234
20
9.361978
70
0
0
VERTEX
8
Layer 1
10
4.631234
20
12.754779
70
0
0
VERTEX
8
Layer 1
10
5.359367
20
13.408246
70
0
0
VERTEX
8
Layer 1
10
6.273766
20
13.950059
70
0
0
VERTEX
8
Layer 1
10
7.103445
20
14.102512
70
0
0
VERTEX
8
Layer 1
10
7.103445
20
14.102512
70
0
0
SEQEND
8
Layer 1
0
POLYLINE
8
Layer 1
62
7
70
1
10
0.000000
20
0.000000
66
1
0
VERTEX
8
Layer 1
10
4.631234
20
3.383804
70
0
0
VERTEX
8
Layer 1
10
4.631234
20
8.220435
70
0
0
VERTEX
8
Layer 1
10
5.731953
20
7.464680
70
0
0
VERTEX
8
Layer 1
10
7.137285
20
7.159774
70
0
0
VERTEX
8
Layer 1
10
8.178786
20
7.291067
70
0
0
VERTEX
8
Layer 1
10
9.101761
20
7.684813
70
0
0
VERTEX
8
Layer 1
10
9.889144
20
8.323979
70
0
0
VERTEX
8
Layer 1
10
10.490293
20
9.157852
70
0
0
VERTEX
8
Layer 1
10
10.883916
20
10.161273
70
0
0
VERTEX
8
Layer 1
10
11.015067
20
11.308621
70
0
0
VERTEX
8
Layer 1
10
10.896537
20
12.447380
70
0
0
VERTEX
8
Layer 1
10
10.540934
20
13.425285
70
0
0
VERTEX
8
Layer 1
10
9.986398
20
14.221154
70
0
0
VERTEX
8
Layer 1
10
9.270988
20
14.813843
70
0
0
VERTEX
8
Layer 1
10
8.437049
20
15.182050
70
0
0
VERTEX
8
Layer 1
10
7.526910
20
15.304750
70
0
0
VERTEX
8
Layer 1
10
6.680182
20
15.207430
70
0
0
VERTEX
8
Layer 1
10
5.901180
20
14.915363
70
0
0
VERTEX
8
Layer 1
10
5.242014
20
14.470477
70
0
0
VERTEX
8
Layer 1
10
4.543657
20
13.790383
70
0
0
VERTEX
8
Layer 1
10
4.411101
20
15.152324
70
0
0
VERTEX
8
Layer 1
10
3.174996
20
15.152324
70
0
0
VERTEX
8
Layer 1
10
3.174996
20
3.383804
70
0
0
VERTEX
8
Layer 1
10
4.631234
20
3.383804
70
0
0
VERTEX
8
Layer 1
10
4.631234
20
3.383804
70
0
0
SEQEND
8
Layer 1
0
POLYLINE
8
Layer 1
62
7
70
1
10
0.000000
20
0.000000
66
1
0
VERTEX
8
Layer 1
10
76.717958
20
9.965042
70
0
0
VERTEX
8
Layer 1
10
76.638439
20
9.176088
70
0
0
VERTEX
8
Layer 1
10
76.410372
20
8.441253
70
0
0
VERTEX
8
Layer 1
10
75.571519
20
7.196905
70
0
0
VERTEX
8
Layer 1
10
74.327260
20
6.357940
70
0
0
VERTEX
8
Layer 1
10
73.592433
20
6.129833
70
0
0
VERTEX
8
Layer 1
10
72.803452
20
6.050298
70
0
0
VERTEX
8
Layer 1
10
71.562492
20
6.251272
70
0
0
VERTEX
8
Layer 1
10
70.485440
20
6.810445
70
0
0
VERTEX
8
Layer 1
10
70.330924
20
6.693156
70
0
0
VERTEX
8
Layer 1
10
70.242289
20
6.631905
70
0
0
VERTEX
8
Layer 1
10
70.236732
20
6.627777
70
0
0
VERTEX
8
Layer 1
10
70.236468
20
6.628042
70
0
0
VERTEX
8
Layer 1
10
69.604114
20
6.316948
70
0
0
VERTEX
8
Layer 1
10
69.074948
20
6.189310
70
0
0
VERTEX
8
Layer 1
10
68.315860
20
6.185421
70
0
0
VERTEX
8
Layer 1
10
67.591696
20
6.386954
70
0
0
VERTEX
8
Layer 1
10
67.535604
20
6.406612
70
0
0
VERTEX
8
Layer 1
10
67.524227
20
6.410475
70
0
0
VERTEX
8
Layer 1
10
66.860984
20
6.685046
70
0
0
VERTEX
8
Layer 1
10
66.190200
20
7.112255
70
0
0
VERTEX
8
Layer 1
10
65.873230
20
7.071933
70
0
0
VERTEX
8
Layer 1
10
64.364313
20
7.195440
70
0
0
VERTEX
8
Layer 1
10
64.282821
20
7.215072
70
0
0
VERTEX
8
Layer 1
10
63.925899
20
7.328261
70
0
0
VERTEX
8
Layer 1
10
63.655230
20
7.445286
70
0
0
VERTEX
8
Layer 1
10
63.101723
20
7.807024
70
0
0
VERTEX
8
Layer 1
10
63.101458
20
7.806256
70
0
0
VERTEX
8
Layer 1
10
63.076058
20
7.828746
70
0
0
VERTEX
8
Layer 1
10
63.045366
20
7.854569
70
0
0
VERTEX
8
Layer 1
10
63.045896
20
7.855363
70
0
0
VERTEX
8
Layer 1
10
62.577650
20
8.396825
70
0
0
VERTEX
8
Layer 1
10
62.318557
20
8.896894
70
0
0
VERTEX
8
Layer 1
10
61.886228
20
8.872870
70
0
0
VERTEX
8
Layer 1
10
61.109306
20
8.949977
70
0
0
VERTEX
8
Layer 1
10
60.384579
20
9.171271
70
0
0
VERTEX
8
Layer 1
10
59.151763
20
9.986374
70
0
0
VERTEX
8
Layer 1
10
58.307884
20
11.198083
70
0
0
VERTEX
8
Layer 1
10
58.069328
20
11.915136
70
0
0
VERTEX
8
Layer 1
10
57.973046
20
12.686305
70
0
0
VERTEX
8
Layer 1
10
57.971987
20
12.787349
70
0
0
VERTEX
8
Layer 1
10
57.973046
20
12.888102
70
0
0
VERTEX
8
Layer 1
10
58.069013
20
13.657894
70
0
0
VERTEX
8
Layer 1
10
58.306954
20
14.374541
70
0
0
VERTEX
8
Layer 1
10
59.149481
20
15.587388
70
0
0
VERTEX
8
Layer 1
10
60.382086
20
16.404605
70
0
0
VERTEX
8
Layer 1
10
61.107624
20
16.626716
70
0
0
VERTEX
8
Layer 1
10
61.886228
20
16.704156
70
0
0
VERTEX
8
Layer 1
10
63.150315
20
16.495540
70
0
0
VERTEX
8
Layer 1
10
64.241215
20
15.916185
70
0
0
VERTEX
8
Layer 1
10
65.091312
20
15.035836
70
0
0
VERTEX
8
Layer 1
10
65.632988
20
13.924236
70
0
0
VERTEX
8
Layer 1
10
65.936465
20
14.128864
70
0
0
VERTEX
8
Layer 1
10
66.784949
20
14.448861
70
0
0
VERTEX
8
Layer 1
10
67.483217
20
14.497058
70
0
0
VERTEX
8
Layer 1
10
68.094139
20
14.398871
70
0
0
VERTEX
8
Layer 1
10
68.093875
20
14.398342
70
0
0
VERTEX
8
Layer 1
10
68.653468
20
14.200698
70
0
0
VERTEX
8
Layer 1
10
69.420494
20
13.688571
70
0
0
VERTEX
8
Layer 1
10
69.485846
20
13.625283
70
0
0
VERTEX
8
Layer 1
10
69.568925
20
13.538447
70
0
0
VERTEX
8
Layer 1
10
69.678727
20
13.411606
70
0
0
VERTEX
8
Layer 1
10
69.918174
20
13.069236
70
0
0
VERTEX
8
Layer 1
10
70.070839
20
12.769781
70
0
0
VERTEX
8
Layer 1
10
71.302506
20
13.583611
70
0
0
VERTEX
8
Layer 1
10
72.026773
20
13.804589
70
0
0
VERTEX
8
Layer 1
10
72.803452
20
13.881585
70
0
0
VERTEX
8
Layer 1
10
72.904787
20
13.880288
70
0
0
VERTEX
8
Layer 1
10
73.676728
20
13.783885
70
0
0
VERTEX
8
Layer 1
10
74.394121
20
13.545031
70
0
0
VERTEX
8
Layer 1
10
75.605618
20
12.700301
70
0
0
VERTEX
8
Layer 1
10
76.419992
20
11.466753
70
0
0
VERTEX
8
Layer 1
10
76.640981
20
10.741877
70
0
0
VERTEX
8
Layer 1
10
76.717958
20
9.965042
70
0
0
VERTEX
8
Layer 1
10
76.717958
20
9.965042
70
0
0
SEQEND
8
Layer 1
0
POLYLINE
8
Layer 1
62
7
70
1
10
0.000000
20
0.000000
66
1
0
VERTEX
8
Layer 1
10
38.285689
20
15.320255
70
0
0
VERTEX
8
Layer 1
10
39.202502
20
15.265671
70
0
0
VERTEX
8
Layer 1
10
40.061570
20
14.960581
70
0
0
VERTEX
8
Layer 1
10
40.819204
20
14.422855
70
0
0
VERTEX
8
Layer 1
10
41.431581
20
13.670500
70
0
0
VERTEX
8
Layer 1
10
41.859180
20
12.721871
70
0
0
VERTEX
8
Layer 1
10
42.062347
20
11.595164
70
0
0
VERTEX
8
Layer 1
10
42.016839
20
10.441262
70
0
0
VERTEX
8
Layer 1
10
41.699075
20
9.411323
70
0
0
VERTEX
8
Layer 1
10
41.161673
20
8.534925
70
0
0
VERTEX
8
Layer 1
10
40.424049
20
7.838827
70
0
0
VERTEX
8
Layer 1
10
39.533099
20
7.377513
70
0
0
VERTEX
8
Layer 1
10
38.504235
20
7.169088
70
0
0
VERTEX
8
Layer 1
10
37.080249
20
7.368292
70
0
0
VERTEX
8
Layer 1
10
35.925873
20
8.040095
70
0
0
VERTEX
8
Layer 1
10
36.286500
20
3.216614
70
0
0
VERTEX
8
Layer 1
10
34.834204
20
3.108109
70
0
0
VERTEX
8
Layer 1
10
33.957376
20
14.844058
70
0
0
VERTEX
8
Layer 1
10
35.190068
20
14.936292
70
0
0
VERTEX
8
Layer 1
10
35.423695
20
13.588056
70
0
0
VERTEX
8
Layer 1
10
36.069542
20
14.318256
70
0
0
VERTEX
8
Layer 1
10
36.693958
20
14.810985
70
0
0
VERTEX
8
Layer 1
10
37.448747
20
15.160175
70
0
0
VERTEX
8
Layer 1
10
38.285689
20
15.320255
70
0
0
VERTEX
8
Layer 1
10
38.285689
20
15.320255
70
0
0
SEQEND
8
Layer 1
0
POLYLINE
8
Layer 1
62
7
70
1
10
0.000000
20
0.000000
66
1
0
VERTEX
8
Layer 1
10
7.526910
20
15.304750
70
0
0
VERTEX
8
Layer 1
10
8.437049
20
15.182050
70
0
0
VERTEX
8
Layer 1
10
9.270988
20
14.813843
70
0
0
VERTEX
8
Layer 1
10
9.986398
20
14.221154
70
0
0
VERTEX
8
Layer 1
10
10.540934
20
13.425285
70
0
0
VERTEX
8
Layer 1
10
10.896537
20
12.447380
70
0
0
VERTEX
8
Layer 1
10
11.015067
20
11.308621
70
0
0
VERTEX
8
Layer 1
10
10.883916
20
10.161273
70
0
0
VERTEX
8
Layer 1
10
10.490293
20
9.157852
70
0
0
VERTEX
8
Layer 1
10
9.889144
20
8.323979
70
0
0
VERTEX
8
Layer 1
10
9.101761
20
7.684813
70
0
0
VERTEX
8
Layer 1
10
8.178786
20
7.291067
70
0
0
VERTEX
8
Layer 1
10
7.137285
20
7.159774
70
0
0
VERTEX
8
Layer 1
10
5.731953
20
7.464680
70
0
0
VERTEX
8
Layer 1
10
4.631234
20
8.220435
70
0
0
VERTEX
8
Layer 1
10
4.631234
20
3.383804
70
0
0
VERTEX
8
Layer 1
10
3.174996
20
3.383804
70
0
0
VERTEX
8
Layer 1
10
3.174996
20
15.152324
70
0
0
VERTEX
8
Layer 1
10
4.411101
20
15.152324
70
0
0
VERTEX
8
Layer 1
10
4.543657
20
13.790383
70
0
0
VERTEX
8
Layer 1
10
5.242014
20
14.470477
70
0
0
VERTEX
8
Layer 1
10
5.901180
20
14.915363
70
0
0
VERTEX
8
Layer 1
10
6.680182
20
15.207430
70
0
0
VERTEX
8
Layer 1
10
7.526910
20
15.304750
70
0
0
VERTEX
8
Layer 1
10
7.526910
20
15.304750
70
0
0
SEQEND
8
Layer 1
0
POLYLINE
8
Layer 1
62
7
70
1
10
0.000000
20
0.000000
66
1
0
VERTEX
8
Layer 1
10
45.379424
20
17.276211
70
0
0
VERTEX
8
Layer 1
10
45.379689
20
17.276211
70
0
0
VERTEX
8
Layer 1
10
46.811347
20
17.127119
70
0
0
VERTEX
8
Layer 1
10
45.871284
20
8.099520
70
0
0
VERTEX
8
Layer 1
10
45.878957
20
7.315667
70
0
0
VERTEX
8
Layer 1
10
46.091417
20
6.782796
70
0
0
VERTEX
8
Layer 1
10
46.545904
20
6.446108
70
0
0
VERTEX
8
Layer 1
10
47.245263
20
6.254160
70
0
0
VERTEX
8
Layer 1
10
49.068769
20
5.944889
70
0
0
VERTEX
8
Layer 1
10
48.854722
20
4.707487
70
0
0
VERTEX
8
Layer 1
10
46.862941
20
5.034088
70
0
0
VERTEX
8
Layer 1
10
45.281264
20
5.539203
70
0
0
VERTEX
8
Layer 1
10
44.808123
20
5.941803
70
0
0
VERTEX
8
Layer 1
10
44.511592
20
6.487733
70
0
0
VERTEX
8
Layer 1
10
44.394150
20
7.197997
70
0
0
VERTEX
8
Layer 1
10
44.423750
20
8.097192
70
0
0
VERTEX
8
Layer 1
10
45.253218
20
16.063627
70
0
0
VERTEX
8
Layer 1
10
42.171355
20
16.384540
70
0
0
VERTEX
8
Layer 1
10
42.297561
20
17.597124
70
0
0
VERTEX
8
Layer 1
10
45.379424
20
17.276211
70
0
0
VERTEX
8
Layer 1
10
45.379424
20
17.276211
70
0
0
SEQEND
8
Layer 1
0
POLYLINE
8
Layer 1
62
7
70
1
10
0.000000
20
0.000000
66
1
0
VERTEX
8
Layer 1
10
57.346778
20
5.574366
70
0
0
VERTEX
8
Layer 1
10
56.110646
20
5.574366
70
0
0
VERTEX
8
Layer 1
10
55.967242
20
6.877888
70
0
0
VERTEX
8
Layer 1
10
55.281178
20
6.227380
70
0
0
VERTEX
8
Layer 1
10
54.620515
20
5.794500
70
0
0
VERTEX
8
Layer 1
10
53.854381
20
5.515212
70
0
0
VERTEX
8
Layer 1
10
53.011850
20
5.422178
70
0
0
VERTEX
8
Layer 1
10
52.088951
20
5.544879
70
0
0
VERTEX
8
Layer 1
10
51.250785
20
5.913086
70
0
0
VERTEX
8
Layer 1
10
50.543853
20
6.505765
70
0
0
VERTEX
8
Layer 1
10
49.980787
20
7.301644
70
0
0
VERTEX
8
Layer 1
10
49.625254
20
8.279539
70
0
0
VERTEX
8
Layer 1
10
49.506654
20
9.418308
70
0
0
VERTEX
8
Layer 1
10
49.633654
20
10.565533
70
0
0
VERTEX
8
Layer 1
10
50.014654
20
11.568812
70
0
0
VERTEX
8
Layer 1
10
50.632786
20
12.398531
70
0
0
VERTEX
8
Layer 1
10
51.437052
20
13.025050
70
0
0
VERTEX
8
Layer 1
10
52.406550
20
13.431433
70
0
0
VERTEX
8
Layer 1
10
53.485983
20
13.566890
70
0
0
VERTEX
8
Layer 1
10
54.959181
20
13.262249
70
0
0
VERTEX
8
Layer 1
10
55.890513
20
12.678817
70
0
0
VERTEX
8
Layer 1
10
55.890513
20
17.597124
70
0
0
VERTEX
8
Layer 1
10
57.346778
20
17.597124
70
0
0
VERTEX
8
Layer 1
10
57.346778
20
5.574366
70
0
0
VERTEX
8
Layer 1
10
57.346778
20
5.574366
70
0
0
SEQEND
8
Layer 1
0
POLYLINE
8
Layer 1
62
7
70
1
10
0.000000
20
0.000000
66
1
0
VERTEX
8
Layer 1
10
15.811163
20
14.593419
70
0
0
VERTEX
8
Layer 1
10
14.525183
20
9.521389
70
0
0
VERTEX
8
Layer 1
10
14.445144
20
8.895445
70
0
0
VERTEX
8
Layer 1
10
14.554393
20
8.396144
70
0
0
VERTEX
8
Layer 1
10
14.895107
20
8.034568
70
0
0
VERTEX
8
Layer 1
10
15.468289
20
7.797472
70
0
0
VERTEX
8
Layer 1
10
16.301832
20
7.778343
70
0
0
VERTEX
8
Layer 1
10
17.407947
20
8.144208
70
0
0
VERTEX
8
Layer 1
10
18.810211
20
8.852709
70
0
0
VERTEX
8
Layer 1
10
19.996680
20
13.532256
70
0
0
VERTEX
8
Layer 1
10
21.408231
20
13.174407
70
0
0
VERTEX
8
Layer 1
10
19.473468
20
5.541796
70
0
0
VERTEX
8
Layer 1
10
18.192912
20
5.866598
70
0
0
VERTEX
8
Layer 1
10
18.544834
20
7.580699
70
0
0
VERTEX
8
Layer 1
10
17.239752
20
6.929322
70
0
0
VERTEX
8
Layer 1
10
15.915805
20
6.531152
70
0
0
VERTEX
8
Layer 1
10
14.749735
20
6.617194
70
0
0
VERTEX
8
Layer 1
10
13.773761
20
7.039310
70
0
0
VERTEX
8
Layer 1
10
13.176445
20
7.714790
70
0
0
VERTEX
8
Layer 1
10
12.941049
20
8.595431
70
0
0
VERTEX
8
Layer 1
10
13.051112
20
9.633017
70
0
0
VERTEX
8
Layer 1
10
14.399374
20
14.951294
70
0
0
VERTEX
8
Layer 1
10
15.811163
20
14.593419
70
0
0
VERTEX
8
Layer 1
10
15.811163
20
14.593419
70
0
0
SEQEND
8
Layer 1
0
POLYLINE
8
Layer 1
62
7
70
1
10
0.000000
20
0.000000
66
1
0
VERTEX
8
Layer 1
10
53.706116
20
12.381690
70
0
0
VERTEX
8
Layer 1
10
52.918750
20
12.284340
70
0
0
VERTEX
8
Layer 1
10
52.249851
20
11.992303
70
0
0
VERTEX
8
Layer 1
10
51.712251
20
11.547761
70
0
0
VERTEX
8
Layer 1
10
51.318519
20
10.959292
70
0
0
VERTEX
8
Layer 1
10
51.077186
20
10.256579
70
0
0
VERTEX
8
Layer 1
10
50.996786
20
9.469213
70
0
0
VERTEX
8
Layer 1
10
51.077186
20
8.647845
70
0
0
VERTEX
8
Layer 1
10
51.318519
20
7.945004
70
0
0
VERTEX
8
Layer 1
10
51.712185
20
7.386234
70
0
0
VERTEX
8
Layer 1
10
52.215984
20
6.962898
70
0
0
VERTEX
8
Layer 1
10
52.795983
20
6.708994
70
0
0
VERTEX
8
Layer 1
10
53.418249
20
6.624417
70
0
0
VERTEX
8
Layer 1
10
54.247982
20
6.776605
70
0
0
VERTEX
8
Layer 1
10
55.162381
20
7.318683
70
0
0
VERTEX
8
Layer 1
10
55.890513
20
7.979638
70
0
0
VERTEX
8
Layer 1
10
55.890513
20
11.386408
70
0
0
VERTEX
8
Layer 1
10
55.365580
20
11.806011
70
0
0
VERTEX
8
Layer 1
10
54.451181
20
12.263078
70
0
0
VERTEX
8
Layer 1
10
53.706116
20
12.381690
70
0
0
VERTEX
8
Layer 1
10
53.706116
20
12.381690
70
0
0
SEQEND
8
Layer 1
0
POLYLINE
8
Layer 1
62
7
70
1
10
0.000000
20
0.000000
66
1
0
VERTEX
8
Layer 1
10
31.691752
20
14.158841
70
0
0
VERTEX
8
Layer 1
10
30.101872
20
13.879521
70
0
0
VERTEX
8
Layer 1
10
29.169482
20
13.659388
70
0
0
VERTEX
8
Layer 1
10
28.460929
20
13.221688
70
0
0
VERTEX
8
Layer 1
10
27.678292
20
12.284006
70
0
0
VERTEX
8
Layer 1
10
26.804110
20
11.041974
70
0
0
VERTEX
8
Layer 1
10
27.038795
20
8.435170
70
0
0
VERTEX
8
Layer 1
10
29.551804
20
8.661256
70
0
0
VERTEX
8
Layer 1
10
29.661077
20
7.447111
70
0
0
VERTEX
8
Layer 1
10
27.148068
20
7.221025
70
0
0
VERTEX
8
Layer 1
10
27.148332
20
7.220761
70
0
0
VERTEX
8
Layer 1
10
25.714689
20
7.091565
70
0
0
VERTEX
8
Layer 1
10
25.714425
20
7.091829
70
0
0
VERTEX
8
Layer 1
10
23.657186
20
6.906304
70
0
0
VERTEX
8
Layer 1
10
23.547887
20
8.120449
70
0
0
VERTEX
8
Layer 1
10
25.605126
20
8.305974
70
0
0
VERTEX
8
Layer 1
10
25.117552
20
13.719581
70
0
0
VERTEX
8
Layer 1
10
23.397498
20
13.564561
70
0
0
VERTEX
8
Layer 1
10
23.288225
20
14.778944
70
0
0
VERTEX
8
Layer 1
10
26.037137
20
15.026488
70
0
0
VERTEX
8
Layer 1
10
26.290105
20
15.049216
70
0
0
VERTEX
8
Layer 1
10
26.621019
20
12.335679
70
0
0
VERTEX
8
Layer 1
10
27.465038
20
13.710029
70
0
0
VERTEX
8
Layer 1
10
28.264344
20
14.648981
70
0
0
VERTEX
8
Layer 1
10
28.988243
20
15.105281
70
0
0
VERTEX
8
Layer 1
10
29.801042
20
15.331632
70
0
0
VERTEX
8
Layer 1
10
31.461565
20
15.583039
70
0
0
VERTEX
8
Layer 1
10
31.691752
20
14.158841
70
0
0
VERTEX
8
Layer 1
10
31.691752
20
14.158841
70
0
0
SEQEND
8
Layer 1
0
POLYLINE
8
Layer 1
62
7
70
1
10
0.000000
20
0.000000
66
1
0
VERTEX
8
Layer 1
10
39.178657
20
13.825017
70
0
0
VERTEX
8
Layer 1
10
38.588901
20
14.048282
70
0
0
VERTEX
8
Layer 1
10
37.953108
20
14.089838
70
0
0
VERTEX
8
Layer 1
10
37.137134
20
13.876161
70
0
0
VERTEX
8
Layer 1
10
36.265598
20
13.267673
70
0
0
VERTEX
8
Layer 1
10
35.588001
20
12.561527
70
0
0
VERTEX
8
Layer 1
10
35.840942
20
9.178781
70
0
0
VERTEX
8
Layer 1
10
36.379104
20
8.793283
70
0
0
VERTEX
8
Layer 1
10
37.324988
20
8.405457
70
0
0
VERTEX
8
Layer 1
10
38.076933
20
8.342645
70
0
0
VERTEX
8
Layer 1
10
38.876205
20
8.495836
70
0
0
VERTEX
8
Layer 1
10
39.518117
20
8.824028
70
0
0
VERTEX
8
Layer 1
10
40.020328
20
9.319956
70
0
0
VERTEX
8
Layer 1
10
40.368751
20
9.940224
70
0
0
VERTEX
8
Layer 1
10
40.556407
20
10.667444
70
0
0
VERTEX
8
Layer 1
10
40.578566
20
11.450226
70
0
0
VERTEX
8
Layer 1
10
40.434169
20
12.246078
70
0
0
VERTEX
8
Layer 1
10
40.129833
20
12.911121
70
0
0
VERTEX
8
Layer 1
10
39.707724
20
13.448446
70
0
0
VERTEX
8
Layer 1
10
39.178657
20
13.825017
70
0
0
VERTEX
8
Layer 1
10
39.178657
20
13.825017
70
0
0
SEQEND
8
Layer 1
0
POLYLINE
8
Layer 1
62
7
70
1
10
0.000000
20
0.000000
66
1
0
VERTEX
8
Layer 1
10
7.103445
20
14.102512
70
0
0
VERTEX
8
Layer 1
10
6.273766
20
13.950059
70
0
0
VERTEX
8
Layer 1
10
5.359367
20
13.408246
70
0
0
VERTEX
8
Layer 1
10
4.631234
20
12.754779
70
0
0
VERTEX
8
Layer 1
10
4.631234
20
9.361978
70
0
0
VERTEX
8
Layer 1
10
5.139207
20
8.937957
70
0
0
VERTEX
8
Layer 1
10
6.053633
20
8.480626
70
0
0
VERTEX
8
Layer 1
10
6.798804
20
8.362039
70
0
0
VERTEX
8
Layer 1
10
7.607277
20
8.455216
70
0
0
VERTEX
8
Layer 1
10
8.271844
20
8.734625
70
0
0
VERTEX
8
Layer 1
10
8.809529
20
9.191805
70
0
0
VERTEX
8
Layer 1
10
9.203308
20
9.784438
70
0
0
VERTEX
8
Layer 1
10
9.444565
20
10.495614
70
0
0
VERTEX
8
Layer 1
10
9.524988
20
11.274516
70
0
0
VERTEX
8
Layer 1
10
9.440288
20
12.078961
70
0
0
VERTEX
8
Layer 1
10
9.186242
20
12.764859
70
0
0
VERTEX
8
Layer 1
10
8.805226
20
13.332112
70
0
0
VERTEX
8
Layer 1
10
8.305684
20
13.746965
70
0
0
VERTEX
8
Layer 1
10
7.734191
20
14.013628
70
0
0
VERTEX
8
Layer 1
10
7.103445
20
14.102512
70
0
0
VERTEX
8
Layer 1
10
7.103445
20
14.102512
70
0
0
SEQEND
8
Layer 1
0
POLYLINE
8
Layer 1
62
7
70
1
10
0.000000
20
0.000000
66
1
0
VERTEX
8
Layer 1
10
74.072128
20
9.964963
70
0
0
VERTEX
8
Layer 1
10
73.972458
20
9.471073
70
0
0
VERTEX
8
Layer 1
10
73.700620
20
9.067798
70
0
0
VERTEX
8
Layer 1
10
73.297366
20
8.795923
70
0
0
VERTEX
8
Layer 1
10
72.803452
20
8.696234
70
0
0
VERTEX
8
Layer 1
10
72.309538
20
8.795923
70
0
0
VERTEX
8
Layer 1
10
71.906284
20
9.067798
70
0
0
VERTEX
8
Layer 1
10
71.634446
20
9.471073
70
0
0
VERTEX
8
Layer 1
10
71.534777
20
9.964963
70
0
0
VERTEX
8
Layer 1
10
71.634446
20
10.460091
70
0
0
VERTEX
8
Layer 1
10
71.906284
20
10.864002
70
0
0
VERTEX
8
Layer 1
10
72.309538
20
11.136112
70
0
0
VERTEX
8
Layer 1
10
72.803452
20
11.235834
70
0
0
VERTEX
8
Layer 1
10
73.297366
20
11.136112
70
0
0
VERTEX
8
Layer 1
10
73.700620
20
10.864002
70
0
0
VERTEX
8
Layer 1
10
73.972458
20
10.460091
70
0
0
VERTEX
8
Layer 1
10
74.072128
20
9.964963
70
0
0
VERTEX
8
Layer 1
10
74.072128
20
9.964963
70
0
0
SEQEND
8
Layer 1
0
POLYLINE
8
Layer 1
62
7
70
1
10
0.000000
20
0.000000
66
1
0
VERTEX
8
Layer 1
10
68.639445
20
8.818392
70
0
0
VERTEX
8
Layer 1
10
68.384387
20
8.912690
70
0
0
VERTEX
8
Layer 1
10
67.801510
20
9.210584
70
0
0
VERTEX
8
Layer 1
10
67.407017
20
9.664925
70
0
0
VERTEX
8
Layer 1
10
67.132645
20
10.312148
70
0
0
VERTEX
8
Layer 1
10
67.055056
20
10.459756
70
0
0
VERTEX
8
Layer 1
10
66.890551
20
10.342152
70
0
0
VERTEX
8
Layer 1
10
66.254229
20
9.889953
70
0
0
VERTEX
8
Layer 1
10
65.644630
20
9.707788
70
0
0
VERTEX
8
Layer 1
10
64.946924
20
9.776368
70
0
0
VERTEX
8
Layer 1
10
64.803256
20
9.832089
70
0
0
VERTEX
8
Layer 1
10
64.807489
20
10.155700
70
0
0
VERTEX
8
Layer 1
10
65.150389
20
10.262857
70
0
0
VERTEX
8
Layer 1
10
65.879050
20
10.273572
70
0
0
VERTEX
8
Layer 1
10
66.522748
20
10.700054
70
0
0
VERTEX
8
Layer 1
10
67.145609
20
11.666602
70
0
0
VERTEX
8
Layer 1
10
67.265697
20
11.841266
70
0
0
VERTEX
8
Layer 1
10
67.437180
20
11.835908
70
0
0
VERTEX
8
Layer 1
10
67.614979
20
11.754470
70
0
0
VERTEX
8
Layer 1
10
67.638527
20
11.525156
70
0
0
VERTEX
8
Layer 1
10
67.612863
20
10.631474
70
0
0
VERTEX
8
Layer 1
10
67.815930
20
10.042115
70
0
0
VERTEX
8
Layer 1
10
68.221404
20
9.574914
70
0
0
VERTEX
8
Layer 1
10
68.804545
20
9.264162
70
0
0
VERTEX
8
Layer 1
10
68.875188
20
9.120572
70
0
0
VERTEX
8
Layer 1
10
68.785230
20
8.839823
70
0
0
VERTEX
8
Layer 1
10
68.639445
20
8.818392
70
0
0
VERTEX
8
Layer 1
10
68.639445
20
8.818392
70
0
0
SEQEND
8
Layer 1
0
POLYLINE
8
Layer 1
62
7
70
1
10
0.000000
20
0.000000
66
1
0
VERTEX
8
Layer 1
10
63.155168
20
12.787455
70
0
0
VERTEX
8
Layer 1
10
63.055462
20
12.293565
70
0
0
VERTEX
8
Layer 1
10
62.783562
20
11.890290
70
0
0
VERTEX
8
Layer 1
10
62.380296
20
11.618415
70
0
0
VERTEX
8
Layer 1
10
61.886493
20
11.518726
70
0
0
VERTEX
8
Layer 1
10
61.392578
20
11.618415
70
0
0
VERTEX
8
Layer 1
10
60.989325
20
11.890290
70
0
0
VERTEX
8
Layer 1
10
60.717487
20
12.293565
70
0
0
VERTEX
8
Layer 1
10
60.617817
20
12.787455
70
0
0
VERTEX
8
Layer 1
10
60.717487
20
13.281679
70
0
0
VERTEX
8
Layer 1
10
60.989325
20
13.685691
70
0
0
VERTEX
8
Layer 1
10
61.392578
20
13.958303
70
0
0
VERTEX
8
Layer 1
10
61.886493
20
14.058326
70
0
0
VERTEX
8
Layer 1
10
62.380296
20
13.958303
70
0
0
VERTEX
8
Layer 1
10
62.783562
20
13.685691
70
0
0
VERTEX
8
Layer 1
10
63.055462
20
13.281679
70
0
0
VERTEX
8
Layer 1
10
63.155168
20
12.787455
70
0
0
VERTEX
8
Layer 1
10
63.155168
20
12.787455
70
0
0
SEQEND
8
Layer 1
 0 
ENDSEC
 0 
EOF